<?xml version="1.0" encoding="UTF-8"?>
<svg id="Layer_1" xmlns="http://www.w3.org/2000/svg" xmlns:xlink="http://www.w3.org/1999/xlink" version="1.1" viewBox="0 0 40.6 41">
  <!-- Generator: Adobe Illustrator 29.0.1, SVG Export Plug-In . SVG Version: 2.1.0 Build 192)  -->
  <defs>
    <style>
      .st0 {
        fill: none;
      }

      .st1 {
        fill: #c7231a;
        fill-rule: evenodd;
      }

      .st2 {
        clip-path: url(#clippath);
      }
    </style>
    <clipPath id="clippath">
      <rect class="st0" x=".3" width="40" height="41"/>
    </clipPath>
  </defs>
  <g class="st2">
    <path class="st1" d="M14,.5c-2.3,0-4.4.9-6,2.5L.3,10.7v3.5c0,2.5,1.1,4.7,2.8,6.3-1.8,1.6-2.8,3.9-2.8,6.3v3.5l7.7,7.7c3.3,3.3,8.7,3.3,12,0l.3-.3c3.2,3.5,8.5,3.7,12,.6l.3-.3,7.7-7.7v-3.5c0-2.5-1.1-4.7-2.8-6.3,1.8-1.6,2.8-3.9,2.8-6.3v-3.5l-7.7-7.7c-3.3-3.3-8.7-3.3-12,0,0,0-.2.2-.3.3-1.6-1.8-3.9-2.8-6.3-2.8ZM26.1,20.5l-.3-.3-5.5-5.5-5.5,5.5s-.2.2-.3.3c0,0,.2.2.3.3l5.5,5.5,5.5-5.5.3-.3ZM22.5,30.3v1.7c0,2.2,1.8,4.1,4.1,4.1s2.1-.4,2.9-1.2l6.4-6.4v-1.7c0-2.2-1.8-4.1-4.1-4.1s-2.1.4-2.9,1.2l-6.4,6.4ZM18.1,30.3l-6.4-6.4c-1.6-1.6-4.2-1.6-5.7,0-.8.8-1.2,1.8-1.2,2.9v1.7l6.4,6.4c1.6,1.6,4.2,1.6,5.7,0,.8-.8,1.2-1.8,1.2-2.9v-1.7ZM18.1,9v1.7l-6.4,6.4c-1.6,1.6-4.2,1.6-5.7,0-.8-.8-1.2-1.8-1.2-2.9v-1.7l6.4-6.4c1.6-1.6,4.2-1.6,5.7,0,.8.8,1.2,1.8,1.2,2.9ZM28.9,17.1l-6.4-6.4v-1.7c0-2.2,1.8-4.1,4.1-4.1s2.1.4,2.9,1.2l6.4,6.4v1.7c0,2.2-1.8,4.1-4.1,4.1s-2.1-.4-2.9-1.2Z"/>
  </g>
</svg>